<?xml version="1.0" encoding="utf-8"?>
<!-- Generator: Adobe Illustrator 15.0.0, SVG Export Plug-In . SVG Version: 6.00 Build 0)  -->
<!DOCTYPE svg PUBLIC "-//W3C//DTD SVG 1.1//EN" "http://www.w3.org/Graphics/SVG/1.1/DTD/svg11.dtd">
<svg version="1.1" id="Layer_1" xmlns="http://www.w3.org/2000/svg" xmlns:xlink="http://www.w3.org/1999/xlink" x="0px" y="0px"
	 width="101.5px" height="75.333px" viewBox="412.333 554.001 101.5 75.333" enable-background="new 412.333 554.001 101.5 75.333"
	 xml:space="preserve">
<g>
	<path d="M512.862,613.554c0-5.686-22.386-10.295-50-10.295s-50,4.609-50,10.295c0,0.023,0.009,0.044,0.009,0.068
		s-0.008,0.047-0.008,0.069c0,2.734,5.192,5.22,13.647,7.063c6.136,3.632,20.083,7.644,36.352,7.644
		c16.291,0,30.277-4.017,36.398-7.653c8.428-1.843,13.6-4.323,13.6-7.053c0-0.025-0.006-0.05-0.008-0.072
		C512.856,613.598,512.862,613.575,512.862,613.554z M462.862,605.832c20.711,0,37.502,3.456,37.502,7.722
		c0,4.264-16.792,7.72-37.502,7.72c-20.71,0-37.502-3.457-37.502-7.72C425.36,609.289,442.152,605.832,462.862,605.832z"/>
	<path fill="#E24800" d="M476.632,596.916c17.861-28.943-12.504-41.424-12.504-41.424c7.811,6.514,10.536,28.673-3.768,28.967
		c-10.146,0.207-8.385-10.673-7.294-12.969c-1.143,1.619-8.827,15.225-5.634,28.948c3.193,13.725,22.5,19.162,22.5,19.162
		C465.936,607.637,473.573,601.83,476.632,596.916z"/>
</g>
</svg>
